<svg width="38" height="38" viewBox="0 0 38 38" fill="none" xmlns="http://www.w3.org/2000/svg">
<path d="M4.13451 32.9911C4.23743 32.9224 4.34412 32.8627 4.45312 32.8096V38H11.1328V34.4897C11.5306 34.5404 11.9327 34.5674 12.3386 34.5674C13.4855 34.5674 14.6075 34.3624 15.6602 33.9675V38H22.3398V33.9275C23.4172 34.3488 24.5652 34.5674 25.7351 34.5674C26.0902 34.5674 26.4433 34.5471 26.793 34.5071V38H33.4727V32.76C33.6211 32.8241 33.7661 32.9007 33.9041 32.9928C34.6604 33.4958 35.6128 33.9232 36.5861 34.196L38 34.5929V27.6308L37.4808 27.3032C36.2448 26.5233 34.8718 26.0601 33.4727 25.9081V21.6269C33.6217 21.6916 33.7663 21.7681 33.9041 21.86C34.6604 22.363 35.6128 22.7904 36.5861 23.0635L38 23.4601V16.4977L37.4808 16.1701C36.2927 15.4207 34.9014 14.9452 33.4727 14.7852V10.4202C34.0609 10.6739 34.7361 11.3375 36.5861 11.8562L38 12.2531V5.2907L37.4808 4.96309C36.2448 4.1835 34.8718 3.71992 33.4727 3.5683V0H26.793V5.32491C25.9693 5.68005 25.0137 5.6041 24.2478 5.09355C23.6479 4.69347 23.0087 4.36731 22.3398 4.11595V0H15.6602V4.15857C15.0313 4.40413 14.4292 4.71608 13.863 5.09355C13.0671 5.6241 11.9921 5.68295 11.1328 5.27301V0H4.45312V3.59352C3.07196 3.76747 1.72037 4.24989 0.504456 5.04398L0 5.37332V12.2722L1.40291 11.8941C2.37065 11.6332 3.28969 11.2151 4.13451 10.6513C4.23743 10.5826 4.34412 10.5228 4.45312 10.4698V14.7988C3.0508 14.9757 1.70297 15.4682 0.504456 16.251L0 16.5804V23.4792L1.40291 23.1012C2.37065 22.8402 3.28969 22.4219 4.1348 21.8583C4.23714 21.7899 4.34383 21.7296 4.45312 21.6762V25.9334C3.07225 26.1073 1.72037 26.5897 0.504745 27.3838L0 27.7132V34.612L1.40291 34.234C2.37065 33.9731 3.28969 33.5547 4.13451 32.9911ZM8.90625 35.7734H6.67969V32.7598C6.82755 32.8235 6.97163 32.8995 7.10905 32.9911C7.67613 33.3692 8.27858 33.6811 8.90625 33.9255V35.7734ZM15.6602 26.4984C15.0313 26.744 14.4292 27.0559 13.863 27.4334C13.0671 27.9639 11.9921 28.0228 11.1328 27.6129V23.3577C11.5222 23.4064 11.9141 23.4317 12.3061 23.4317C13.4487 23.4317 14.5901 23.2267 15.6602 22.8286V26.4984ZM20.1133 35.7734H17.8867V21.6768C18.5889 21.3356 19.4001 21.3193 20.1133 21.6269V35.7734ZM31.2461 35.7734H29.0195V33.9696C29.6855 33.7191 30.3256 33.3923 30.9275 32.9911C31.0304 32.9224 31.1371 32.8627 31.2461 32.8096V35.7734ZM35.7734 28.8882V31.5067C35.5464 31.3922 35.3331 31.269 35.1385 31.1397C33.4845 30.0363 31.3467 30.0357 29.6924 31.1385C28.5125 31.9251 27.1441 32.3408 25.7351 32.3408C24.5444 32.3408 23.3833 32.0428 22.3398 31.4763V28.8894C22.57 29.0091 22.795 29.1407 23.0127 29.286C24.6664 30.3885 26.8037 30.3885 28.4574 29.286C30.6512 27.8236 33.4619 27.6862 35.7734 28.8882ZM22.3398 26.4558V22.7947C23.4172 23.216 24.5652 23.4346 25.7351 23.4346C26.0891 23.4346 26.4422 23.4134 26.793 23.3731V27.6647C25.9693 28.0199 25.0137 27.9439 24.2478 27.4334C23.6479 27.0333 23.0087 26.7072 22.3398 26.4558ZM29.0195 26.4978V11.6297C29.6855 11.3792 30.3256 11.0525 30.9275 10.6513C31.0304 10.5826 31.1371 10.5228 31.2461 10.4698V25.9299C30.4883 26.0276 29.7403 26.2163 29.0195 26.4978ZM35.7734 17.7571V20.3739C35.5464 20.2594 35.3331 20.1362 35.1385 20.0069C34.6259 19.6651 34.0623 19.4256 33.4727 19.2951V17.0268C34.2792 17.1434 35.0629 17.3921 35.7734 17.7571ZM29.0195 2.22656H31.2461V3.59033C30.4883 3.68774 29.7403 3.87648 29.0195 4.15799V2.22656ZM22.3398 6.54951C22.57 6.66925 22.795 6.80087 23.0127 6.94612C24.6664 8.04868 26.8037 8.04868 28.4574 6.94612C30.6512 5.48349 33.4619 5.34607 35.7734 6.54836V9.16689C35.5464 9.05237 35.3328 8.92915 35.1385 8.79985C33.4845 7.69614 31.3467 7.69556 29.6924 8.79869C28.5125 9.58524 27.1441 10.001 25.7351 10.001C24.5455 10.001 23.3833 9.70294 22.3398 9.13644V6.54951ZM22.3398 11.5868C23.4178 12.0084 24.5661 12.2275 25.7351 12.2275C26.0902 12.2275 26.4433 12.2072 26.793 12.1672V16.5319C25.9693 16.8871 25.0137 16.8111 24.2478 16.3006C23.6416 15.8964 23.0011 15.5706 22.3398 15.3218V11.5868ZM17.8867 2.22656H20.1133V14.7843C19.3734 14.6997 18.626 14.7052 17.8867 14.7985V2.22656ZM23.0127 18.1532C23.8399 18.7043 24.7876 18.98 25.7354 18.98C26.0899 18.98 26.4448 18.9414 26.793 18.8643V21.128C26.443 21.1805 26.0896 21.208 25.7351 21.208C24.3261 21.208 22.9577 20.7923 21.7777 20.0057C20.124 18.9032 17.9867 18.9032 16.3331 20.0057C14.8197 21.0146 12.9268 21.4072 11.1328 21.11V18.8327C12.4702 19.16 13.927 18.9339 15.0983 18.1532C17.502 16.5505 20.6087 16.5505 23.0127 18.1532ZM11.1328 16.48V12.1545C12.6511 12.3496 14.2077 12.1748 15.6602 11.6286V15.3644C15.0383 15.6077 14.4353 15.9191 13.863 16.3006C13.0671 16.8311 11.9921 16.89 11.1328 16.48ZM6.67969 2.22656H8.90625V4.11624C8.18378 3.84488 7.43579 3.66513 6.67969 3.57903V2.22656ZM2.89917 8.79898C2.68086 8.94452 2.45647 9.0773 2.22656 9.19675V6.60721C4.53749 5.35448 7.36389 5.46899 9.57915 6.94612C11.2296 8.04636 13.4475 8.04636 15.098 6.94612C15.2807 6.82436 15.4685 6.71245 15.6602 6.60837V9.1953C13.3486 10.3976 10.5379 10.261 8.3441 8.79869C6.69041 7.69614 4.55315 7.69614 2.89917 8.79898ZM8.90625 11.5868V26.4561C8.18378 26.1847 7.43579 26.005 6.67969 25.9189V10.4199C6.82755 10.4837 6.97163 10.5596 7.10905 10.6513C7.6799 11.0319 8.28293 11.3433 8.90625 11.5868ZM2.89917 20.006C2.68086 20.1516 2.45647 20.2843 2.22656 20.4038V17.8139C2.92439 17.4353 3.67615 17.1773 4.45312 17.0477V19.3215C3.90344 19.4566 3.37782 19.6868 2.89917 20.006ZM2.22656 28.9471C4.53749 27.6943 7.36389 27.8088 9.57915 29.286C11.2296 30.3862 13.4475 30.3862 15.098 29.286C15.2807 29.1642 15.4685 29.0523 15.6602 28.9482V31.534C13.3652 32.7177 10.5156 32.5861 8.3441 31.1385C6.69041 30.036 4.55315 30.036 2.89917 31.1388C2.68086 31.2844 2.45647 31.4171 2.22656 31.5366V28.9471Z" fill="#114965"/>
</svg>
