<svg width="57" height="41" viewBox="0 0 57 41" fill="none" xmlns="http://www.w3.org/2000/svg">
<path d="M25.3319 7.40651H44.8253C46.3349 10.0884 49.6498 16.9001 51.8146 18.6094C53.4201 19.9056 55.2577 21.0249 57 22.1385C57 26.5411 57 30.9445 57 35.3479H50.4074C50.015 38.2783 47.4964 40.4939 44.5224 40.4939C41.5505 40.4939 39.0305 38.2804 38.6388 35.3479H21.3116C20.9185 38.2783 18.3999 40.4939 15.4266 40.4939C12.4525 40.4939 9.9354 38.2897 9.54225 35.3479H5.85139H4.76289V34.2594V24.5861C1.8483 22.0941 0 18.3896 0 14.2533C0 6.74768 6.08412 0.662842 13.5905 0.662842C18.599 0.662842 22.9744 3.37334 25.3319 7.40651ZM6.70285 13.7348L11.5101 17.3677L20.3098 8.24508L22.3693 10.2259L12.6881 20.2622L11.8059 21.1767L10.7969 20.4133L4.97987 16.0178L6.70285 13.7348ZM6.93917 26.1065V29.6942H9.08322V31.8698H6.93917V33.1724H9.65325C10.3049 30.4576 12.7648 28.6394 15.4266 28.62C18.1872 28.6408 20.5611 30.4891 21.2013 33.1724H38.7491C39.3936 30.4877 41.7725 28.6401 44.5224 28.62C47.2823 28.6408 49.6569 30.4891 50.2979 33.1724H54.8237V31.8698H51.748V29.6942H54.8237V28.3679H51.6012H50.5141C50.5141 26.4502 50.5141 24.5331 50.5141 22.6161H53.7481C53.2074 22.2616 52.6696 21.9043 52.1383 21.5348H42.9992C41.3665 21.5348 40.0309 20.1971 40.0309 18.565V13.2658C40.0309 11.6345 41.3679 10.2968 42.9992 10.2968H43.9588L43.5571 9.58279H26.3567C26.8902 11.0394 27.1809 12.612 27.1809 14.2533C27.1809 21.7589 21.0961 27.8438 13.5905 27.8438C11.1736 27.8438 8.90562 27.2121 6.93917 26.1065ZM13.5905 3.18142C7.47482 3.18142 2.51858 8.13766 2.51858 14.2533C2.51858 20.3689 7.47482 25.3245 13.5905 25.3245C19.7054 25.3245 24.6616 20.3689 24.6616 14.2533C24.6616 8.13766 19.7054 3.18142 13.5905 3.18142ZM38.2528 31.8698H21.6962V29.6942H38.2528V31.8698ZM15.4266 30.7949C13.4265 30.8185 11.6655 32.3388 11.6655 34.5566C11.6655 36.6341 13.3491 38.3184 15.4266 38.3184C17.5105 38.3184 19.1891 36.6398 19.1891 34.5566C19.1891 32.4584 17.5133 30.8199 15.4266 30.7949ZM44.5224 30.7949C42.4392 30.8199 40.7613 32.4613 40.7613 34.5566C40.7613 35.5971 41.1817 36.5388 41.8606 37.2191C42.5409 37.898 43.4826 38.3184 44.5224 38.3184C46.6063 38.3184 48.2849 36.6398 48.2849 34.5566C48.2849 32.4577 46.612 30.8199 44.5224 30.7949ZM54.8237 24.7917H52.689V26.1917H54.8237V24.7917ZM45.1841 12.473H42.9992C42.5631 12.473 42.2072 12.8289 42.2072 13.2658V18.565C42.2072 19.0026 42.5624 19.3592 42.9992 19.3592H49.4314C48.2591 18.038 46.264 14.3894 45.1841 12.473Z" fill="#114965"/>
</svg>
