<svg width="28" height="28" viewBox="0 0 28 28" fill="none" xmlns="http://www.w3.org/2000/svg">
<path d="M15.3334 24.584C18.0231 24.2417 20.4816 22.8882 22.2092 20.7984C23.9367 18.7086 24.8037 16.0394 24.6339 13.3333C24.4641 10.6272 23.2703 8.08731 21.2951 6.22983C19.3199 4.37235 16.7115 3.33668 14.0001 3.33332C11.2854 3.3313 8.67201 4.36444 6.69253 6.22223C4.71305 8.08001 3.5164 10.6226 3.34641 13.332C3.17641 16.0414 4.04586 18.7137 5.77761 20.8043C7.50935 22.895 9.97307 24.2467 12.6667 24.584V16.6667H10.0001V14H12.6667V11.7947C12.6667 10.012 12.8534 9.36532 13.2001 8.71332C13.5416 8.06824 14.0694 7.54091 14.7147 7.19999C15.2241 6.92666 15.8574 6.76266 16.9641 6.69199C17.4027 6.66399 17.9707 6.69866 18.6681 6.79866V9.33199H18.0001C16.7774 9.33199 16.2721 9.38932 15.9707 9.55066C15.7909 9.64313 15.6446 9.78952 15.5521 9.96932C15.3921 10.2707 15.3334 10.5693 15.3334 11.7933V14H18.6667L18.0001 16.6667H15.3334V24.584ZM14.0001 27.3333C6.63608 27.3333 0.666748 21.364 0.666748 14C0.666748 6.63599 6.63608 0.666656 14.0001 0.666656C21.3641 0.666656 27.3334 6.63599 27.3334 14C27.3334 21.364 21.3641 27.3333 14.0001 27.3333Z" fill="white"/>
</svg>
