<svg width="78" height="80" viewBox="0 0 78 80" fill="none" xmlns="http://www.w3.org/2000/svg">
<path d="M2.33057 70.6658C1.59411 70.6658 0.997192 71.2629 0.997192 71.9992C0.997192 72.7356 1.59427 73.3326 2.33057 73.3326H8.99775V75.9995C8.99775 78.2087 10.7888 79.9998 12.998 79.9998H63.6683C65.8775 79.9998 67.6686 78.2087 67.6686 75.9995V73.3326H75.6692C76.4056 73.3326 77.0025 72.7355 77.0025 71.9992C77.0025 71.2627 76.4056 70.6658 75.6692 70.6658H71.6689V67.9989H75.6692C76.4056 67.9989 77.0025 67.4018 77.0025 66.6655C77.0025 65.9291 76.4056 65.3322 75.6692 65.3322H71.6689V62.6653H75.6692C76.4056 62.6653 77.0025 62.0682 77.0025 61.3319C77.0025 60.5956 76.4056 59.9985 75.6692 59.9985H71.6689V57.3316H75.6692C76.4056 57.3316 77.0025 56.7347 77.0025 55.9982C77.0025 55.2618 76.4056 54.6648 75.6692 54.6648H71.6689V51.9979H75.6692C76.4056 51.9979 77.0025 51.401 77.0025 50.6646C77.0025 49.9281 76.4056 49.3312 75.6692 49.3312H71.6689V46.6641H75.6692C76.4056 46.6641 77.0025 46.0672 77.0025 45.3308C77.0025 44.5943 76.4056 43.9974 75.6692 43.9974H71.6689V41.3305H75.6692C76.4056 41.3305 77.0025 40.7336 77.0025 39.9971C77.0025 39.2606 76.4056 38.6637 75.6692 38.6637H67.6686V29.3298C67.6686 27.1206 65.8775 25.3295 63.6683 25.3295V14.6619C63.6683 11.7162 61.2803 9.32822 58.3347 9.32822H52.9302C52.7758 7.06666 52.2594 4.84447 51.4007 2.74636C51.0549 1.91395 50.3194 1.30672 49.4365 1.12484C42.1102 -0.375271 34.556 -0.375271 27.2297 1.12484C26.3468 1.30672 25.6113 1.91395 25.2655 2.74636C24.4071 4.84447 23.8907 7.0665 23.736 9.32822H18.3315C15.3859 9.32822 12.9979 11.7162 12.9979 14.6619V25.3293C10.7887 25.3293 8.9976 27.1204 8.9976 29.3296V38.6636H2.33057C1.59411 38.6636 0.997192 39.2606 0.997192 39.9969C0.997192 40.7332 1.59427 41.3303 2.33057 41.3303H4.99747V43.9972H2.33057C1.59411 43.9972 0.997192 44.5941 0.997192 45.3306C0.997192 46.0671 1.59427 46.664 2.33057 46.664H4.99747V49.3309H2.33057C1.59411 49.3309 0.997192 49.9278 0.997192 50.6643C0.997192 51.4007 1.59427 51.9976 2.33057 51.9976H4.99747V54.6645H2.33057C1.59411 54.6645 0.997192 55.2615 0.997192 55.9979C0.997192 56.7344 1.59427 57.3313 2.33057 57.3313H4.99747V59.9982H2.33057C1.59411 59.9982 0.997192 60.5951 0.997192 61.3316C0.997192 62.068 1.59427 62.6649 2.33057 62.6649H4.99747V65.3318H2.33057C1.59411 65.3318 0.997192 65.9289 0.997192 66.6652C0.997192 67.4017 1.59427 67.9986 2.33057 67.9986H4.99747V70.6655H2.33057V70.6658ZM7.66438 41.3305H15.6649V49.331H7.66438V41.3305ZM47.6672 41.3305V49.331H39.6666V41.3305H47.6672ZM58.3345 41.3305V49.331H50.3339V41.3305H58.3345ZM69.002 70.6658H61.0014V62.6653H69.002V70.6658ZM28.9992 70.6658V62.6653H36.9997V70.6658H28.9992ZM18.3317 70.6658V62.6653H26.3323V70.6658H18.3317ZM7.66438 51.9979H15.6649V59.9985H7.66438V51.9979ZM18.3317 51.9979H26.3323V59.9985H18.3317V51.9979ZM36.9997 59.9985H28.9992V51.9979H36.9997V59.9985ZM39.6666 51.9979H47.6672V59.9985H39.6666V51.9979ZM39.6666 62.6653H47.6672V70.6658H39.6666V62.6653ZM50.3339 62.6653H58.3345V70.6658H50.3339V62.6653ZM69.002 59.9985H61.0014V51.9979H69.002V59.9985ZM58.3345 59.9985H50.3339V51.9979H58.3345V59.9985ZM36.9997 49.331H28.9992V41.3305H36.9997V49.331ZM26.3323 49.331H18.3317V41.3305H26.3323V49.331ZM7.66438 62.6653H15.6649V70.6658H7.66438V62.6653ZM65.0017 75.9996C65.0017 76.7361 64.4046 77.333 63.6683 77.333H12.998C12.2616 77.333 11.6647 76.7359 11.6647 75.9996V73.3327H65.0017V75.9996ZM69.002 49.331H61.0014V41.3305H69.002V49.331ZM27.763 3.73846C34.7455 2.30679 41.9463 2.31086 48.9271 3.75049C49.8391 5.92814 50.3196 8.26221 50.3419 10.623C50.3419 10.6363 50.3339 10.6483 50.3339 10.6616C50.3339 10.6749 50.3419 10.6869 50.3419 10.7002C50.3202 13.0593 49.8402 15.3915 48.9285 17.5674C48.9223 17.5758 48.9134 17.5819 48.9032 17.5847C41.9207 19.0162 34.72 19.0122 27.7391 17.5727C26.8271 15.3911 26.3493 13.0527 26.3323 10.6882C26.3323 10.6788 26.3323 10.6708 26.3323 10.6614C26.3323 10.6521 26.3323 10.6441 26.3323 10.6347C26.3544 8.26487 26.8406 5.92189 27.763 3.73846ZM15.6649 14.6619C15.6649 13.189 16.8589 11.995 18.3318 11.995H23.7363C23.8919 14.2569 24.4096 16.479 25.2697 18.5768C25.6147 19.4082 26.3485 20.0152 27.2298 20.1984C30.8837 20.9472 34.6035 21.3259 38.3333 21.3291C42.0627 21.3277 45.7827 20.9506 49.4367 20.2037C50.318 20.0205 51.0518 19.4136 51.3968 18.5822C52.2572 16.4826 52.7749 14.2586 52.9302 11.995H58.3347C59.8076 11.995 61.0016 13.189 61.0016 14.6619V25.3293H15.6649V14.6619ZM11.6647 29.3296C11.6647 28.5932 12.2617 27.9963 12.998 27.9963H63.6683C64.4048 27.9963 65.0017 28.5932 65.0017 29.3296V38.6636H11.6647V29.3296Z" fill="url(#paint0_linear_3447_968)"/>
<defs>
<linearGradient id="paint0_linear_3447_968" x1="38.9999" y1="-0.000244141" x2="38.9999" y2="79.9998" gradientUnits="userSpaceOnUse">
<stop stop-color="#60C0BC"/>
<stop offset="0.508333" stop-color="#4EB5E7"/>
<stop offset="1" stop-color="#7662A7"/>
</linearGradient>
</defs>
</svg>
