<svg width="38" height="38" viewBox="0 0 38 38" fill="none" xmlns="http://www.w3.org/2000/svg">
<path d="M38 8.67871C38 7.77124 37.3668 7.19909 36.9478 6.8205C36.8812 6.76031 36.7962 6.68349 36.7257 6.61424C36.7962 6.54492 36.8812 6.46811 36.9477 6.40806C38.9093 4.8324 37.7471 3.09687 36.3386 1.66267C34.9007 0.250507 33.1677 -0.905747 31.5933 1.05348C31.5331 1.12005 31.4563 1.20511 31.387 1.27562C31.3177 1.20511 31.2409 1.12005 31.1809 1.05355C30.0368 -0.348735 28.6055 -0.34547 27.4643 1.05355C27.4041 1.12005 27.3273 1.20511 27.2581 1.27554C27.1888 1.20511 27.112 1.12005 27.0518 1.05348C25.9078 -0.34881 24.4764 -0.345396 23.3353 1.05355C23.2751 1.12005 23.1983 1.20511 23.1292 1.27554C23.0598 1.20511 22.983 1.12005 22.9229 1.05355C21.779 -0.348735 20.3476 -0.345395 19.2064 1.05348C19.1462 1.12005 19.0694 1.20511 19.0001 1.27562C18.9309 1.20511 18.854 1.12005 18.7939 1.05355C17.6499 -0.348735 16.2185 -0.34547 15.0774 1.05355C15.0173 1.12005 14.9405 1.20511 14.8711 1.27554C14.8018 1.20511 14.725 1.12005 14.6649 1.05355C13.5209 -0.348735 12.0895 -0.345396 10.9483 1.05355C10.8882 1.12005 10.8114 1.20511 10.7421 1.27554C10.6727 1.20511 10.5959 1.12005 10.5358 1.05355C9.39186 -0.348735 7.96033 -0.34547 6.81929 1.05355C6.75918 1.12005 6.68228 1.20511 6.61304 1.27562C6.54379 1.20511 6.4669 1.12005 6.40679 1.05355C4.83112 -0.908048 3.09559 0.254218 1.66139 1.66267C1.04092 2.28306 0 3.48318 0 4.5497C0.0290937 5.62253 0.739219 6.09315 1.27426 6.61417C1.20375 6.68349 1.1187 6.76031 1.0522 6.82035C-0.35009 7.96436 -0.34675 9.39574 1.0522 10.5369C1.1187 10.5971 1.20375 10.6739 1.27426 10.7431C1.20375 10.8124 1.1187 10.8893 1.0522 10.9494C-0.35009 12.0934 -0.346676 13.5248 1.0522 14.6659C1.1187 14.7261 1.20375 14.8029 1.27426 14.872C0.739664 15.3922 0.0287227 15.8647 0 16.9368C0.0290937 18.0095 0.739293 18.4803 1.27434 19.0013C1.20383 19.0706 1.11877 19.1474 1.05227 19.2075C-0.350016 20.3515 -0.346676 21.7828 1.05227 22.924C1.11877 22.9842 1.20383 23.061 1.27434 23.1302C1.20383 23.1995 1.11885 23.2764 1.05227 23.3364C-0.350016 24.4804 -0.346676 25.9118 1.05227 27.053C1.11877 27.1132 1.20383 27.19 1.27434 27.2592C0.739664 27.7792 0.0287227 28.2518 0 29.3238C0.0290937 30.3965 0.739293 30.8674 1.27434 31.3883C1.20383 31.4576 1.11877 31.5344 1.05227 31.5945C-0.909254 33.1702 0.252938 34.9057 1.66139 36.3399C3.09945 37.7521 4.83238 38.9084 6.40679 36.949C6.4669 36.8825 6.54372 36.7974 6.61304 36.7269C6.68236 36.7974 6.75918 36.8825 6.81929 36.949C7.96323 38.3513 9.39468 38.348 10.5358 36.949C10.5959 36.8825 10.6728 36.7974 10.7421 36.7269C10.8113 36.7974 10.8881 36.8825 10.9482 36.949C12.0922 38.3513 13.5236 38.348 14.6648 36.949C14.7249 36.8825 14.8017 36.7974 14.8711 36.727C14.9404 36.7974 15.0172 36.8825 15.0773 36.949C16.2213 38.3513 17.6528 38.348 18.7938 36.949C18.8539 36.8825 18.9308 36.7974 19.0001 36.7269C19.0694 36.7974 19.1462 36.8825 19.2063 36.949C20.3503 38.3513 21.7816 38.348 22.9228 36.949C22.983 36.8825 23.0598 36.7974 23.129 36.727C23.1983 36.7974 23.2751 36.8825 23.3352 36.949C24.4792 38.3513 25.9107 38.348 27.0518 36.949C27.112 36.8825 27.1888 36.7974 27.2579 36.727C27.3273 36.7974 27.4041 36.8825 27.4642 36.949C28.6081 38.3513 30.0395 38.3479 31.1807 36.9491C31.2409 36.8825 31.3177 36.7974 31.387 36.7269C31.4563 36.7974 31.5331 36.8825 31.5931 36.949C33.1688 38.9105 34.9043 37.7484 36.3385 36.3399C37.7507 34.902 38.907 33.169 36.9477 31.5946C36.8812 31.5344 36.7961 31.4576 36.7256 31.3883C36.7961 31.319 36.8812 31.2422 36.9477 31.1821C38.3499 30.038 38.3467 28.6067 36.9477 27.4656C36.8812 27.4054 36.7961 27.3285 36.7257 27.2594C36.7961 27.1901 36.8812 27.1132 36.9477 27.0531C38.35 25.9091 38.3466 24.4777 36.9477 23.3366C36.8812 23.2764 36.7961 23.1996 36.7257 23.1304C36.7961 23.0611 36.8812 22.9843 36.9477 22.9242C38.3499 21.7802 38.3467 20.3489 36.9477 19.2077C36.8812 19.1475 36.7961 19.0707 36.7256 19.0014C36.7961 18.9321 36.8812 18.8553 36.9477 18.7952C38.3499 17.6512 38.3467 16.2199 36.9477 15.0787C36.8812 15.0186 36.7961 14.9417 36.7257 14.8725C36.7961 14.8032 36.8812 14.7264 36.9477 14.6663C38.3499 13.5223 38.3467 12.0908 36.9477 10.9497C36.8812 10.8895 36.7961 10.8127 36.7257 10.7436C36.7961 10.6742 36.8812 10.5974 36.9477 10.5373C37.3668 10.1584 38 9.58626 38 8.67871ZM35.455 8.47253C35.5215 8.53272 35.6066 8.60954 35.677 8.67871C35.6066 8.74803 35.5215 8.82492 35.455 8.88497C34.0528 10.029 34.056 11.4603 35.455 12.6015C35.5215 12.6617 35.6066 12.7385 35.6771 12.8077C35.6066 12.877 35.5215 12.9539 35.455 13.0139C34.0527 14.158 34.056 15.5893 35.455 16.7305C35.5215 16.7906 35.6066 16.8674 35.6771 16.9367C35.6066 17.006 35.5215 17.0828 35.455 17.1428C34.0527 18.2869 34.056 19.7182 35.455 20.8594C35.5215 20.9196 35.6066 20.9964 35.677 21.0656C35.6066 21.1349 35.5215 21.2118 35.455 21.2718C34.0528 22.4159 34.056 23.8472 35.455 24.9884C35.5215 25.0485 35.6066 25.1254 35.677 25.1946C35.6066 25.2639 35.5215 25.3407 35.455 25.4008C34.0528 26.5447 34.056 27.9761 35.455 29.1173C35.5215 29.1775 35.6066 29.2543 35.6771 29.3235C35.6066 29.3929 35.5215 29.4697 35.455 29.5297C34.0527 30.6737 34.056 32.1052 35.455 33.2463C35.5408 33.3239 35.6575 33.4292 35.734 33.5104C35.4691 34.1458 34.1413 35.472 33.5093 35.7349C33.4282 35.6585 33.3229 35.5418 33.2453 35.456C32.1012 34.0537 30.6699 34.057 29.5287 35.456C29.4686 35.5225 29.3917 35.6076 29.3226 35.678C29.2532 35.6076 29.1764 35.5225 29.1163 35.456C27.9723 34.0538 26.541 34.057 25.3998 35.4559C25.3396 35.5225 25.2628 35.6076 25.1936 35.6781C25.1242 35.6076 25.0474 35.5225 24.9874 35.456C23.8433 34.0537 22.412 34.057 21.2708 35.456C21.2107 35.5225 21.1339 35.6076 21.0646 35.6781C20.9953 35.6076 20.9185 35.5225 20.8584 35.456C19.7144 34.0537 18.283 34.057 17.1419 35.456C17.0817 35.5225 17.0049 35.6076 16.9356 35.678C16.8663 35.6076 16.7895 35.5225 16.7294 35.456C15.5853 34.0537 14.154 34.0571 13.0128 35.456C12.9527 35.5225 12.8758 35.6076 12.8066 35.678C12.7373 35.6076 12.6605 35.5225 12.6003 35.456C11.4563 34.0537 10.0249 34.0571 8.88376 35.456C8.82364 35.5225 8.74683 35.6076 8.67751 35.678C8.60819 35.6076 8.53137 35.5225 8.47133 35.456C7.32725 34.0537 5.89594 34.057 4.75475 35.456C4.67719 35.5418 4.57188 35.6585 4.49075 35.7349C3.85529 35.47 2.52908 34.1423 2.2662 33.5103C2.34264 33.4292 2.45931 33.3239 2.54511 33.2463C3.9474 32.1023 3.94406 30.6709 2.54511 29.5297C2.47861 29.4695 2.39355 29.3927 2.32305 29.3235C2.39355 29.2542 2.47854 29.1773 2.54511 29.1173C2.96415 28.7386 3.59731 28.1665 3.59731 27.259C3.56821 26.1862 2.85802 25.7155 2.32305 25.1945C2.39355 25.1252 2.47861 25.0484 2.54511 24.9884C3.9474 23.8443 3.94406 22.413 2.54511 21.2718C2.47861 21.2117 2.39355 21.1348 2.32305 21.0656C2.39355 20.9963 2.47854 20.9195 2.54511 20.8594C3.9474 19.7154 3.94406 18.284 2.54511 17.1428C2.47861 17.0826 2.39355 17.0058 2.32305 16.9367C2.39355 16.8673 2.47854 16.7904 2.54511 16.7304C3.94725 15.5864 3.94406 14.1551 2.54511 13.0139C2.47861 12.9538 2.39355 12.8769 2.32305 12.8076C2.39355 12.7384 2.47854 12.6616 2.54511 12.6015C2.96415 12.2228 3.59731 11.6507 3.59731 10.7432C3.56821 9.67035 2.85802 9.19973 2.32305 8.67871C2.39355 8.60939 2.47861 8.53258 2.54511 8.47253C3.9474 7.32852 3.94406 5.89714 2.54511 4.75596C2.45924 4.6784 2.34264 4.57301 2.2662 4.49188C2.53116 3.8565 3.85886 2.53028 4.49075 2.26733C4.57188 2.34377 4.67727 2.46044 4.75482 2.54624C5.89883 3.94853 7.33021 3.94519 8.4714 2.54624C8.53152 2.47974 8.60834 2.39469 8.67766 2.32425C8.74698 2.39469 8.82379 2.47974 8.88391 2.54624C10.0278 3.94853 11.4593 3.94526 12.6004 2.54631C12.6605 2.47974 12.7374 2.39469 12.8067 2.32418C12.8759 2.39469 12.9528 2.47974 13.0129 2.54624C14.1569 3.94853 15.5883 3.94526 16.7294 2.54624C16.7895 2.47974 16.8664 2.39469 16.9357 2.32425C17.005 2.39469 17.0818 2.47974 17.1419 2.54624C18.2859 3.9486 19.7173 3.94519 20.8585 2.54624C20.9187 2.47974 20.9955 2.39469 21.0647 2.32425C21.134 2.39469 21.2109 2.47974 21.2709 2.54624C22.415 3.94846 23.8463 3.94526 24.9874 2.54631C25.0476 2.47974 25.1245 2.39469 25.1937 2.32425C25.2629 2.39469 25.3398 2.47974 25.3999 2.54624C26.5438 3.94846 27.9752 3.94526 29.1164 2.54631C29.1766 2.47974 29.2534 2.39469 29.3226 2.32418C29.392 2.39469 29.4688 2.47974 29.5288 2.54624C30.6728 3.94853 32.1043 3.94526 33.2454 2.54624C33.323 2.46044 33.4283 2.34377 33.5095 2.26733C34.1449 2.53221 35.4711 3.85999 35.734 4.49196C35.6576 4.57308 35.5409 4.6784 35.4551 4.75596C34.0527 5.89996 34.0561 7.33127 35.455 8.47253Z" fill="#114965"/>
<path d="M10.8475 8.92816L10.7492 8.86908L10.8474 8.81008C12.0832 8.00354 10.9931 6.18964 9.70146 6.9011C9.64535 5.42719 7.53056 5.4283 7.47505 6.9011C6.94817 6.58515 6.26499 6.75555 5.94837 7.28228C5.6316 7.80931 5.80208 8.49324 6.32904 8.81L6.42723 8.869L6.32896 8.92808C5.80201 9.24485 5.6316 9.92877 5.94829 10.4558C6.26677 10.9871 6.95685 11.1501 7.47505 10.837C7.53108 12.311 9.64595 12.3099 9.70146 10.837C10.2196 11.1501 10.9097 10.987 11.2281 10.4557C11.5448 9.92885 11.3744 9.24492 10.8475 8.92816Z" fill="#114965"/>
<path d="M21.2594 8.92816L21.1611 8.86908L21.2593 8.81008C21.7864 8.49331 21.9567 7.80939 21.64 7.28236C21.3234 6.75578 20.6403 6.58515 20.1134 6.9011C20.0573 5.42719 17.9425 5.4283 17.887 6.9011C16.5942 6.18934 15.5057 8.00443 16.741 8.81L16.8392 8.86901L16.741 8.92801C16.214 9.24478 16.0436 9.9287 16.3603 10.4557C16.6788 10.987 17.3688 11.15 17.887 10.837C17.943 12.311 20.0579 12.3099 20.1134 10.837C20.6315 11.1501 21.3217 10.987 21.6401 10.4557C21.9568 9.92885 21.7864 9.24492 21.2594 8.92816Z" fill="#114965"/>
<path d="M32.0519 7.2824C31.7353 6.75582 31.0523 6.58512 30.5252 6.90121C30.4691 5.42723 28.3543 5.42834 28.2988 6.90121C27.7718 6.58526 27.0885 6.75582 26.7721 7.2824C26.4553 7.80943 26.6257 8.49335 27.1527 8.81012L27.2509 8.86912L27.1527 8.92813C26.6257 9.24489 26.4554 9.92882 26.7721 10.4558C27.0905 10.9871 27.7806 11.1502 28.2988 10.8371C28.3548 12.3111 30.4697 12.31 30.5252 10.8371C31.0434 11.1502 31.7336 10.9871 32.0519 10.4558C32.3687 9.92882 32.1983 9.24489 31.6713 8.92813L31.5731 8.86912L31.6713 8.81012C32.1982 8.49343 32.3686 7.80943 32.0519 7.2824Z" fill="#114965"/>
<path d="M10.8475 19.059L10.7492 18.9999L10.8474 18.9409C12.0832 18.1344 10.993 16.3204 9.70146 17.032C9.64535 15.558 7.53056 15.5592 7.47505 17.032C6.94817 16.7159 6.26499 16.8865 5.94837 17.4131C5.6316 17.9402 5.80208 18.6241 6.32904 18.9409L6.42723 18.9999L6.32896 19.0589C5.80201 19.3757 5.6316 20.0596 5.94829 20.5867C6.26677 21.1179 6.95685 21.281 7.47505 20.9679C7.53108 22.4418 9.64594 22.4408 9.70146 20.9679C10.2196 21.281 10.9097 21.1179 11.2281 20.5866C11.5448 20.0597 11.3744 19.3758 10.8475 19.059Z" fill="#114965"/>
<path d="M21.2593 19.059L21.161 18.9999L21.2592 18.9409C21.7863 18.6242 21.9566 17.9402 21.6399 17.4132C21.3233 16.8866 20.6402 16.716 20.1133 17.032C20.0572 15.558 17.9424 15.5592 17.8869 17.032C17.3601 16.7159 16.6767 16.8865 16.3602 17.4131C16.0434 17.9402 16.2139 18.6241 16.7409 18.9409L16.8391 18.9999L16.7409 19.0589C16.2139 19.3756 16.0435 20.0596 16.3602 20.5866C16.6787 21.1178 17.3687 21.2809 17.8869 20.9679C17.9429 22.4418 20.0578 22.4407 20.1133 20.9679C20.6314 21.281 21.3216 21.1178 21.64 20.5866C21.9567 20.0597 21.7863 19.3758 21.2593 19.059Z" fill="#114965"/>
<path d="M32.0519 17.4133C31.7353 16.8866 31.0523 16.716 30.5252 17.0321C30.4691 15.5581 28.3543 15.5592 28.2988 17.0321C27.7718 16.7161 27.0885 16.8867 26.7721 17.4133C26.4553 17.9403 26.6257 18.6242 27.1527 18.941L27.2509 19.0001L27.1527 19.0591C26.6257 19.3758 26.4554 20.0598 26.7721 20.5868C27.0905 21.118 27.7806 21.2812 28.2988 20.968C28.3548 22.442 30.4697 22.4409 30.5252 20.968C31.0434 21.2812 31.7336 21.118 32.0519 20.5868C32.3687 20.0598 32.1983 19.3758 31.6713 19.0591L31.573 19.0001L31.6712 18.9411C32.1982 18.6243 32.3686 17.9403 32.0519 17.4133Z" fill="#114965"/>
<path d="M10.8475 29.1899L10.7492 29.1309L10.8474 29.0719C12.0832 28.2653 10.9931 26.4514 9.70146 27.1629C9.64535 25.689 7.53056 25.6901 7.47505 27.1629C6.94817 26.8469 6.26499 27.0173 5.94837 27.5441C5.6316 28.0711 5.80208 28.755 6.32904 29.0718L6.42723 29.1308L6.32896 29.1899C5.80201 29.5066 5.6316 30.1906 5.94829 30.7176C6.26677 31.2488 6.95685 31.4119 7.47505 31.0988C7.53108 32.5728 9.64595 32.5717 9.70146 31.0988C10.2196 31.4119 10.9097 31.2488 11.2281 30.7175C11.5448 30.1906 11.3744 29.5067 10.8475 29.1899Z" fill="#114965"/>
<path d="M21.2594 29.1899L21.1611 29.1309L21.2593 29.0719C21.7864 28.7551 21.9567 28.0712 21.64 27.5441C21.3234 27.0176 20.6403 26.8469 20.1134 27.1629C20.0573 25.689 17.9425 25.6901 17.887 27.1629C16.5942 26.4511 15.5057 28.2662 16.741 29.0718L16.8392 29.1308L16.741 29.1898C16.214 29.5066 16.0436 30.1905 16.3603 30.7175C16.6788 31.2488 17.3688 31.4118 17.887 31.0988C17.943 32.5728 20.0579 32.5717 20.1134 31.0988C20.6315 31.4119 21.3217 31.2488 21.6401 30.7175C21.9568 30.1906 21.7864 29.5067 21.2594 29.1899Z" fill="#114965"/>
<path d="M32.0519 27.5441C31.7353 27.0175 31.0523 26.8468 30.5252 27.1629C30.4691 25.6889 28.3543 25.69 28.2988 27.1629C27.7718 26.8469 27.0885 27.0175 26.7721 27.5441C26.4553 28.0711 26.6257 28.755 27.1527 29.0718L27.2509 29.1308L27.1527 29.1898C26.6257 29.5066 26.4554 30.1905 26.7721 30.7175C27.0905 31.2488 27.7806 31.4119 28.2988 31.0988C28.3548 32.5728 30.4697 32.5716 30.5252 31.0988C31.0434 31.4119 31.7336 31.2488 32.0519 30.7175C32.3687 30.1905 32.1983 29.5066 31.6713 29.1898L31.5731 29.1308L31.6713 29.0718C32.1982 28.7551 32.3686 28.0711 32.0519 27.5441Z" fill="#114965"/>
</svg>
