<svg width="38" height="38" viewBox="0 0 38 38" fill="none" xmlns="http://www.w3.org/2000/svg">
<path d="M35.3407 6.2735C36.0919 5.89067 36.6851 5.58824 38 5.58824V3.35294C35.553 3.35294 34.6503 4.21532 33.5294 4.6556V0H31.2941V4.95766C30.2329 4.90513 29.6831 4.62661 29.0072 4.282C28.4179 3.98158 27.7741 3.65351 26.8235 3.47894V0H24.5882V3.38215C23.2059 3.49376 22.3902 3.90908 21.6586 4.28208C21.1612 4.53556 20.7319 4.7532 20.1176 4.87175V0H17.8824V4.8719C17.2675 4.75343 16.838 4.53571 16.3405 4.282C15.6091 3.90916 14.7935 3.49391 13.4118 3.38222V0H11.1765V3.47879C10.2256 3.65336 9.58166 3.98151 8.99222 4.282C8.31649 4.62646 7.76683 4.90506 6.70588 4.95758V0H4.47059V4.65567C3.34959 4.21539 2.44713 3.35294 0 3.35294V5.58824C1.3148 5.58824 1.90797 5.89067 2.65903 6.2735C3.16808 6.53302 3.71774 6.8131 4.47059 6.99722V11.5168C3.34959 11.0766 2.44713 10.2141 0 10.2141V12.4494C1.3148 12.4494 1.90797 12.7518 2.65903 13.1347C3.16808 13.3942 3.71774 13.6743 4.47059 13.8584V18.378C3.34996 17.9379 2.44795 17.0752 0 17.0752V19.3105C1.3148 19.3105 1.90797 19.6129 2.65896 19.9958C3.16801 20.2553 3.71774 20.5354 4.47059 20.7195V25.2391C3.34959 24.7988 2.44713 23.9363 0 23.9363V26.1716C1.3148 26.1716 1.90797 26.4741 2.65903 26.8569C3.16808 27.1164 3.71774 27.3966 4.47059 27.5806V32.1002C3.34959 31.66 2.44713 30.7975 0 30.7975V33.0328C1.3148 33.0328 1.90797 33.3352 2.65903 33.7181C3.16808 33.9776 3.71774 34.2577 4.47059 34.4418V38H6.70588V34.6399C9.10853 34.5486 9.89535 33.5885 11.1765 33.2174V38H13.4118V33.072C14.2381 33.1651 14.7334 33.4162 15.3253 33.7179C15.9887 34.0561 16.721 34.4293 17.8824 34.5792V38H20.1176V34.579C21.2784 34.429 22.0105 34.056 22.6738 33.7179C23.2658 33.4161 23.7614 33.165 24.5882 33.0719V38H26.8235V33.2176C28.1047 33.5889 28.8906 34.5487 31.2941 34.6399V38H33.5294V34.4416C34.2822 34.2575 34.8317 33.9775 35.3407 33.718C36.0918 33.3352 36.685 33.0327 38 33.0327V30.7974C35.553 30.7974 34.6503 31.6598 33.5294 32.1001V27.5805C34.2822 27.3964 34.8317 27.1164 35.3407 26.8569C36.0918 26.4741 36.685 26.1716 38 26.1716V23.9363C35.553 23.9363 34.6503 24.7987 33.5294 25.239V20.7194C34.2822 20.5353 34.8317 20.2553 35.3407 19.9958C36.0918 19.6129 36.685 19.3106 38 19.3106V17.0753C35.553 17.0753 34.6503 17.9376 33.5294 18.3779V13.8583C34.2822 13.6743 34.8317 13.3942 35.3407 13.1347C36.0918 12.7519 36.685 12.4495 38 12.4495V10.2142C35.553 10.2142 34.6503 11.0766 33.5294 11.5168V6.99707C34.2822 6.81303 34.8317 6.53302 35.3407 6.2735ZM31.2941 7.19541V11.8187C30.2329 11.7662 29.6831 11.4877 29.0072 11.1432C28.4179 10.8427 27.7741 10.5147 26.8235 10.3401V5.77309C28.1047 6.14445 28.8906 7.10421 31.2941 7.19541ZM24.5882 17.1043C23.2059 17.2159 22.3902 17.6313 21.6586 18.0043C21.1612 18.2578 20.7319 18.4755 20.1176 18.5939V13.9957C21.2784 13.8457 22.0105 13.4728 22.6738 13.1346C23.2658 12.8327 23.7614 12.5817 24.5882 12.4886V17.1043ZM17.8824 18.5941C17.2675 18.4757 16.838 18.258 16.3406 18.0043C15.6091 17.6313 14.7935 17.2161 13.4118 17.1043V12.4886C14.2381 12.5817 14.7334 12.8328 15.3253 13.1345C15.9887 13.4727 16.721 13.8459 17.8824 13.9958V18.5941ZM11.1765 17.201C10.2256 17.3756 9.58166 17.7038 8.99222 18.0043C8.31649 18.3488 7.76683 18.6273 6.70588 18.6798V14.0565C9.10853 13.9651 9.89535 13.0051 11.1765 12.634V17.201ZM11.1765 19.4951V24.0622C10.2256 24.2368 9.58166 24.5648 8.99222 24.8654C8.31649 25.2099 7.76683 25.4885 6.70588 25.541V20.9177C9.10853 20.8263 9.89572 19.8662 11.1765 19.4951ZM13.4118 19.3498C14.2381 19.4429 14.7334 19.6939 15.3253 19.9957C15.9886 20.3339 16.721 20.707 17.8824 20.8569V25.4552C17.2675 25.3368 16.838 25.119 16.3405 24.8653C15.6091 24.4924 14.7935 24.0772 13.4118 23.9655V19.3498ZM20.1176 20.8568C21.2784 20.7068 22.0105 20.3338 22.6738 19.9957C23.2658 19.6938 23.7614 19.4427 24.5882 19.3496V23.9654C23.2059 24.077 22.3902 24.4923 21.6586 24.8653C21.1612 25.1188 20.7319 25.3365 20.1176 25.455V20.8568ZM26.8235 19.4953C28.1047 19.8667 28.8906 20.8264 31.2941 20.9177V25.541C30.2329 25.4885 29.6831 25.2099 29.0072 24.8653C28.4179 24.5649 27.7741 24.2368 26.8235 24.0623V19.4953ZM29.0072 18.0043C28.4179 17.7038 27.7741 17.3758 26.8235 17.2012V12.6343C28.1047 13.0056 28.8906 13.9654 31.2941 14.0566V18.6799C30.2329 18.6274 29.6831 18.3489 29.0072 18.0043ZM22.6738 6.2735C23.2658 5.97166 23.7614 5.72056 24.5882 5.6275V10.2433C23.2059 10.3549 22.3902 10.7702 21.6586 11.1432C21.1612 11.3967 20.7319 11.6144 20.1176 11.7329V7.13454C21.2784 6.98462 22.0105 6.61163 22.6738 6.2735ZM15.3253 6.2735C15.9887 6.6117 16.721 6.98485 17.8824 7.13476V11.7331C17.2675 11.6146 16.838 11.3969 16.3405 11.1432C15.6091 10.7703 14.7935 10.3551 13.4118 10.2434V5.62758C14.2381 5.72071 14.7334 5.97174 15.3253 6.2735ZM11.1765 5.77294V10.3399C10.2256 10.5145 9.58166 10.8427 8.99222 11.1432C8.31649 11.4876 7.76683 11.7662 6.70588 11.8187V7.19541C9.10853 7.10406 9.89535 6.14408 11.1765 5.77294ZM8.99222 31.7265C8.31649 32.071 7.76683 32.3495 6.70588 32.4021V27.7787C9.10853 27.6874 9.89535 26.7273 11.1765 26.3562V30.9232C10.2256 31.0979 9.58166 31.426 8.99222 31.7265ZM16.3405 31.7265C15.6091 31.3536 14.7935 30.9383 13.4118 30.8266V26.2109C14.2381 26.304 14.7334 26.5551 15.3253 26.8568C15.9887 27.195 16.721 27.5682 17.8824 27.7181V32.3164C17.2675 32.1978 16.838 31.9801 16.3405 31.7265ZM21.6586 31.7265C21.1612 31.98 20.7319 32.1976 20.1176 32.3162V27.7179C21.2784 27.568 22.0105 27.195 22.6738 26.8568C23.2658 26.555 23.7614 26.3039 24.5882 26.2108V30.8266C23.2059 30.9382 22.3902 31.3535 21.6586 31.7265ZM29.0072 31.7265C28.4179 31.426 27.7741 31.098 26.8235 30.9234V26.3564C28.1047 26.7278 28.8906 27.6875 31.2941 27.7787V32.4021C30.2329 32.3496 29.6831 32.071 29.0072 31.7265Z" fill="#114965"/>
</svg>
