<svg width="38" height="38" viewBox="0 0 38 38" fill="none" xmlns="http://www.w3.org/2000/svg">
<path d="M37.2578 8.3125C37.6677 8.3125 38 7.98015 38 7.57031V4.30469C38 3.89485 37.6677 3.5625 37.2578 3.5625H34.4375V0.742188C34.4375 0.332352 34.1052 0 33.6953 0H30.4297C30.0198 0 29.6875 0.332352 29.6875 0.742188V3.5625H27.9062V0.742188C27.9062 0.332352 27.574 0 27.1641 0H23.8984C23.4885 0 23.1562 0.332352 23.1562 0.742188V3.5625H21.375V0.742188C21.375 0.332352 21.0427 0 20.6328 0H17.3672C16.9573 0 16.625 0.332352 16.625 0.742188V3.5625H14.8438V0.742188C14.8438 0.332352 14.5115 0 14.1016 0H10.8359C10.426 0 10.0938 0.332352 10.0938 0.742188V3.5625H8.3125V0.742188C8.3125 0.332352 7.98022 0 7.57031 0H4.30469C3.89478 0 3.5625 0.332352 3.5625 0.742188V3.5625H0.742188C0.332277 3.5625 0 3.89485 0 4.30469V7.57031C0 7.98015 0.332277 8.3125 0.742188 8.3125H3.5625V10.0938H0.742188C0.332277 10.0938 0 10.4261 0 10.8359V14.1016C0 14.5114 0.332277 14.8438 0.742188 14.8438H3.5625V16.625H0.742188C0.332277 16.625 0 16.9574 0 17.3672V20.6328C0 21.0426 0.332277 21.375 0.742188 21.375H3.5625V23.1562H0.742188C0.332277 23.1562 0 23.4886 0 23.8984V27.1641C0 27.5739 0.332277 27.9062 0.742188 27.9062H3.5625V29.6875H0.742188C0.332277 29.6875 0 30.0199 0 30.4297V33.6953C0 34.1051 0.332277 34.4375 0.742188 34.4375H3.5625V37.2578C3.5625 37.6676 3.89478 38 4.30469 38H7.57031C7.98022 38 8.3125 37.6676 8.3125 37.2578V34.4375H10.0938V37.2578C10.0938 37.6676 10.426 38 10.8359 38H14.1016C14.5115 38 14.8438 37.6676 14.8438 37.2578V34.4375H16.625V37.2578C16.625 37.6676 16.9573 38 17.3672 38H20.6328C21.0427 38 21.375 37.6676 21.375 37.2578V34.4375H23.1562V37.2578C23.1562 37.6676 23.4885 38 23.8984 38H27.1641C27.574 38 27.9062 37.6676 27.9062 37.2578V34.4375H29.6875V37.2578C29.6875 37.6676 30.0198 38 30.4297 38H33.6953C34.1052 38 34.4375 37.6676 34.4375 37.2578V34.4375H37.2578C37.6677 34.4375 38 34.1051 38 33.6953V30.4297C38 30.0199 37.6677 29.6875 37.2578 29.6875H34.4375V27.9062H37.2578C37.6677 27.9062 38 27.5739 38 27.1641V23.8984C38 23.4886 37.6677 23.1562 37.2578 23.1562H34.4375V21.375H37.2578C37.6677 21.375 38 21.0426 38 20.6328V17.3672C38 16.9574 37.6677 16.625 37.2578 16.625H34.4375V14.8438H37.2578C37.6677 14.8438 38 14.5114 38 14.1016V10.8359C38 10.4261 37.6677 10.0938 37.2578 10.0938H34.4375V8.3125H37.2578ZM31.1719 1.48438H32.9531V3.5625H31.1719V1.48438ZM36.5156 5.04688V6.82812H27.9062V5.04688H36.5156ZM27.9062 16.625V14.8438H29.6875V16.625H27.9062ZM27.9062 29.6875V27.9062H29.6875V29.6875H27.9062ZM23.1562 29.6875H21.375V27.9062H23.1562V29.6875ZM14.8438 29.6875V27.9062H16.625V29.6875H14.8438ZM10.0938 29.6875H8.3125V27.9062H10.0938V29.6875ZM10.0938 21.375V23.1562H8.3125V21.375H10.0938ZM10.0938 8.3125V10.0938H8.3125V8.3125H10.0938ZM14.8438 8.3125H16.625V10.0938H14.8438V8.3125ZM23.1562 8.3125V10.0938H21.375V8.3125H23.1562ZM29.6875 11.5781V13.3594H21.375V11.5781H29.6875ZM26.4219 23.1562H24.6406V14.8438H26.4219V23.1562ZM21.375 23.1562V21.375H23.1562V23.1562H21.375ZM16.625 23.1562H14.8438V21.375H16.625V23.1562ZM11.5781 14.8438H13.3594V23.1562H11.5781V14.8438ZM16.625 14.8438V16.625H14.8438V14.8438H16.625ZM14.8438 19.8906V18.1094H23.1562V19.8906H14.8438ZM21.375 14.8438H23.1562V16.625H21.375V14.8438ZM19.8906 16.625H18.1094V8.3125H19.8906V16.625ZM16.625 11.5781V13.3594H8.3125V11.5781H16.625ZM8.3125 14.8438H10.0938V16.625H8.3125V14.8438ZM8.3125 26.4219V24.6406H16.625V26.4219H8.3125ZM18.1094 21.375H19.8906V29.6875H18.1094V21.375ZM21.375 26.4219V24.6406H29.6875V26.4219H21.375ZM29.6875 23.1562H27.9062V21.375H29.6875V23.1562ZM29.6875 10.0938H27.9062V8.3125H29.6875V10.0938ZM24.6406 1.48438H26.4219V10.0938H24.6406V1.48438ZM18.1094 1.48438H19.8906V3.5625H18.1094V1.48438ZM23.1562 5.04688V6.82812H14.8438V5.04688H23.1562ZM11.5781 1.48438H13.3594V10.0938H11.5781V1.48438ZM5.04688 1.48438H6.82812V3.5625H5.04688V1.48438ZM1.48438 5.04688H10.0938V6.82812H1.48438V5.04688ZM1.48438 13.3594V11.5781H3.5625V13.3594H1.48438ZM5.04688 8.3125H6.82812V16.625H5.04688V8.3125ZM1.48438 18.1094H10.0938V19.8906H1.48438V18.1094ZM1.48438 26.4219V24.6406H3.5625V26.4219H1.48438ZM5.04688 21.375H6.82812V29.6875H5.04688V21.375ZM6.82812 36.5156H5.04688V34.4375H6.82812V36.5156ZM1.48438 32.9531V31.1719H10.0938V32.9531H1.48438ZM13.3594 36.5156H11.5781V27.9062H13.3594V36.5156ZM19.8906 36.5156H18.1094V34.4375H19.8906V36.5156ZM14.8438 32.9531V31.1719H23.1562V32.9531H14.8438ZM26.4219 36.5156H24.6406V27.9062H26.4219V36.5156ZM32.9531 36.5156H31.1719V34.4375H32.9531V36.5156ZM36.5156 32.9531H27.9062V31.1719H36.5156V32.9531ZM36.5156 24.6406V26.4219H34.4375V24.6406H36.5156ZM32.9531 29.6875H31.1719V21.375H32.9531V29.6875ZM36.5156 19.8906H27.9062V18.1094H36.5156V19.8906ZM36.5156 11.5781V13.3594H34.4375V11.5781H36.5156ZM32.9531 16.625H31.1719V8.3125H32.9531V16.625Z" fill="#114965"/>
</svg>
