<svg width="38" height="38" viewBox="0 0 38 38" fill="none" xmlns="http://www.w3.org/2000/svg">
<path d="M36.8867 11.207C37.5015 11.207 38 10.7086 38 10.0938V5.64062C38 5.0258 37.5015 4.52734 36.8867 4.52734H33.4727V1.11328C33.4727 0.498453 32.9742 0 32.3594 0H27.9062C27.2914 0 26.793 0.498453 26.793 1.11328V4.52734H22.3398V1.11328C22.3398 0.498453 21.8414 0 21.2266 0H16.7734C16.1586 0 15.6602 0.498453 15.6602 1.11328V4.52734H11.207V1.11328C11.207 0.498453 10.7086 0 10.0938 0H5.64062C5.0258 0 4.52734 0.498453 4.52734 1.11328V4.52734H1.11328C0.498453 4.52734 0 5.0258 0 5.64062V10.0938C0 10.7086 0.498453 11.207 1.11328 11.207H4.52734V15.6602H1.11328C0.498453 15.6602 0 16.1586 0 16.7734V21.2266C0 21.8414 0.498453 22.3398 1.11328 22.3398H4.52734V26.793H1.11328C0.498453 26.793 0 27.2914 0 27.9062V32.3594C0 32.9742 0.498453 33.4727 1.11328 33.4727H4.52734V36.8867C4.52734 37.5015 5.0258 38 5.64062 38H10.0938C10.7086 38 11.207 37.5015 11.207 36.8867V33.4727H15.6602V36.8867C15.6602 37.5015 16.1586 38 16.7734 38H21.2266C21.8414 38 22.3398 37.5015 22.3398 36.8867V33.4727H26.793V36.8867C26.793 37.5015 27.2914 38 27.9062 38H32.3594C32.9742 38 33.4727 37.5015 33.4727 36.8867V33.4727H36.8867C37.5015 33.4727 38 32.9742 38 32.3594V27.9062C38 27.2914 37.5015 26.793 36.8867 26.793H33.4727V22.3398H36.8867C37.5015 22.3398 38 21.8414 38 21.2266V16.7734C38 16.1586 37.5015 15.6602 36.8867 15.6602H33.4727V11.207H36.8867ZM29.0195 2.22656H31.2461V4.52734H29.0195V2.22656ZM35.7734 6.75391V8.98047H22.3398V6.75391H35.7734ZM22.3398 26.793V22.3398H26.793V26.793H22.3398ZM15.6602 26.793H11.207V22.3398H15.6602V26.793ZM15.6602 11.207V15.6602H11.207V11.207H15.6602ZM11.207 20.1133V17.8867H26.793V20.1133H11.207ZM26.793 15.6602H22.3398V11.207H26.793V15.6602ZM17.8867 2.22656H20.1133V15.6602H17.8867V2.22656ZM6.75391 2.22656H8.98047V4.52734H6.75391V2.22656ZM2.22656 6.75391H15.6602V8.98047H2.22656V6.75391ZM2.22656 20.1133V17.8867H4.52734V20.1133H2.22656ZM6.75391 11.207H8.98047V26.793H6.75391V11.207ZM8.98047 35.7734H6.75391V33.4727H8.98047V35.7734ZM2.22656 31.2461V29.0195H15.6602V31.2461H2.22656ZM20.1133 35.7734H17.8867V22.3398H20.1133V35.7734ZM31.2461 35.7734H29.0195V33.4727H31.2461V35.7734ZM35.7734 31.2461H22.3398V29.0195H35.7734V31.2461ZM35.7734 17.8867V20.1133H33.4727V17.8867H35.7734ZM31.2461 26.793H29.0195V11.207H31.2461V26.793Z" fill="#114965"/>
</svg>
