<svg width="28" height="28" viewBox="0 0 28 28" fill="none" xmlns="http://www.w3.org/2000/svg">
<path d="M14.0001 24.6667C16.8291 24.6667 19.5422 23.5429 21.5426 21.5425C23.5429 19.5421 24.6667 16.829 24.6667 14C24.6667 11.171 23.5429 8.45791 21.5426 6.45752C19.5422 4.45713 16.8291 3.33332 14.0001 3.33332C11.1711 3.33332 8.458 4.45713 6.45761 6.45752C4.45722 8.45791 3.33341 11.171 3.33341 14C3.33341 16.829 4.45722 19.5421 6.45761 21.5425C8.458 23.5429 11.1711 24.6667 14.0001 24.6667ZM14.0001 27.3333C6.63608 27.3333 0.666748 21.364 0.666748 14C0.666748 6.63599 6.63608 0.666656 14.0001 0.666656C21.3641 0.666656 27.3334 6.63599 27.3334 14C27.3334 21.364 21.3641 27.3333 14.0001 27.3333ZM9.85342 15.56L6.52275 14.5213C5.80275 14.3013 5.79875 13.8053 6.68408 13.4493L19.6614 8.43599C20.4147 8.12932 20.8414 8.51732 20.5974 9.48932L18.3881 19.916C18.2334 20.6587 17.7867 20.836 17.1667 20.4933L13.7654 17.976L12.1801 19.5067C12.0174 19.664 11.8854 19.7987 11.6347 19.832C11.3854 19.8667 11.1801 19.792 11.0294 19.3787L9.86942 15.5507L9.85342 15.5613V15.56Z" fill="white"/>
</svg>
