<svg width="81" height="72" viewBox="0 0 81 72" fill="none" xmlns="http://www.w3.org/2000/svg">
<path d="M61.7057 28.2377L67.1853 27.998C68.1383 27.7582 69.0913 26.7993 69.0913 25.6006V18.8879H10.0063C8.8151 18.8879 7.86211 17.9289 7.86211 16.9699C7.86211 15.7712 8.8151 14.8123 10.0063 14.8123H20.9656L28.5895 11.2162H6.67088C5.24141 11.2162 4.05018 12.4149 4.05018 13.8533V64.6783C4.05018 66.1167 5.24141 67.3154 6.67088 67.3154H66.4706C67.9001 67.3154 69.0913 66.1167 69.0913 64.6783V52.931C69.0913 51.4925 67.9001 50.2938 66.4706 50.2938C63.8499 50.2938 61.2292 50.2938 58.3702 50.2938C54.7965 50.2938 51.9376 47.417 51.9376 43.5811V34.7107C51.9376 28.7172 56.9408 28.2377 61.7057 28.2377ZM30.2572 14.8123H56.4643L51.4611 4.74317L30.2572 14.8123ZM60.9909 14.8123H69.0913V13.8533C69.0913 12.4149 67.9001 11.2162 66.4706 11.2162H59.085L60.9909 14.8123ZM57.179 7.14057H66.4706C70.0443 7.14057 72.9032 10.2572 72.9032 13.8533C72.9032 17.6891 72.9032 21.7647 72.9032 25.6006C72.9032 26.5595 72.9032 27.2788 72.4267 28.2377H73.8562C77.4299 28.2377 80.5271 31.1146 80.5271 34.7107V43.5811C80.5271 47.1772 77.4299 50.2938 73.8562 50.2938H72.4267C72.9032 51.0131 72.9032 51.972 72.9032 52.931V64.6783C72.9032 68.2744 70.0443 71.1513 66.4706 71.1513H6.67088C3.0972 71.1513 0 68.2744 0 64.6783V13.8533C0 10.2572 3.0972 7.14057 6.67088 7.14057H36.9281L51.6993 0.188103C52.6523 -0.291378 53.8436 0.188103 54.32 1.14706L57.179 7.14057ZM73.8562 32.3133C68.6148 32.3133 63.6116 32.3133 58.3702 32.3133C56.9408 32.3133 55.9878 33.2723 55.9878 34.7107V43.5811C55.9878 45.0196 56.9408 46.2183 58.3702 46.2183C63.6116 46.2183 68.6148 46.2183 73.8562 46.2183C75.2857 46.2183 76.4769 45.0196 76.4769 43.5811V34.7107C76.4769 33.2723 75.2857 32.3133 73.8562 32.3133Z" fill="url(#paint0_linear_3447_1365)"/>
<defs>
<linearGradient id="paint0_linear_3447_1365" x1="40.2635" y1="0" x2="40.2635" y2="71.1513" gradientUnits="userSpaceOnUse">
<stop stop-color="#60C0BC"/>
<stop offset="0.508333" stop-color="#4EB5E7"/>
<stop offset="1" stop-color="#7662A7"/>
</linearGradient>
</defs>
</svg>
