<svg width="123" height="71" viewBox="0 0 123 71" fill="none" xmlns="http://www.w3.org/2000/svg">
<path d="M91.1058 63.0701C90.1758 63.4936 89.2204 63.8913 88.242 64.2862C87.8445 64.4466 87.4416 64.6071 87.0345 64.7692C84.4394 65.8028 81.678 66.9027 79.1128 68.4701C79.0561 68.448 78.9989 68.42 78.9461 68.3882C78.9384 68.3836 78.9309 68.379 78.9238 68.3744C79.0704 67.671 79.13 67.0205 79.1092 66.4104L79.1089 66.4023L79.1086 66.3942C79.0537 65.0934 78.6078 64.0158 77.8394 63.1738C77.1202 62.3858 76.2269 61.9256 75.4889 61.6155C75.0808 61.444 74.5202 61.2462 74.0604 61.084C73.9719 61.0527 73.8871 61.0228 73.8079 60.9947C73.9357 60.9232 74.0686 60.8532 74.2212 60.7728C74.365 60.697 74.5263 60.6121 74.7172 60.508C75.1825 60.2545 75.7783 59.9074 76.3145 59.4162L76.315 59.4158C77.1038 58.6927 77.6939 57.718 77.8516 56.4096L78.0779 54.5324L76.2165 54.2011C75.1258 54.007 74.0372 53.9025 73.0446 53.8072L72.9518 53.7983C71.9057 53.6979 70.9652 53.6044 70.0599 53.435C68.3076 53.1069 66.8066 52.5145 65.4556 51.1262L65.4541 51.1246C64.6589 50.3093 63.71 49.7568 62.617 49.6227C61.5436 49.4911 60.5884 49.7949 59.8238 50.2035C58.4232 50.9519 57.1967 52.3237 56.3372 53.2852L56.2929 53.3347L56.2903 53.3375C56.2057 53.4325 56.1218 53.5272 56.0384 53.6215L54.2593 50.9129C53.5596 49.8476 52.903 48.8946 52.289 48.0036C51.0407 46.1919 49.9689 44.6362 49.0695 42.9129L49.0687 42.9115C47.1332 39.2099 43.9019 36.2526 40.2748 34.7949C36.6193 33.3258 32.4187 33.3459 28.8824 35.9062C25.1414 38.6083 21.4021 39.2158 17.4952 39.0417C15.5098 38.9532 13.5036 38.6637 11.4079 38.3376C11.175 38.3013 10.9407 38.2646 10.7051 38.2277C8.8546 37.9374 6.92708 37.6351 5.00615 37.4731C3.88875 37.3784 3.22247 36.9927 2.81152 36.5335C2.38337 36.0552 2.05632 35.2982 2.00102 34.1717C1.88767 31.8624 2.96032 28.4618 5.62771 24.7395L5.63018 24.7361C6.93009 22.9139 8.30889 21.3316 9.77916 20.5901L9.77916 20.5901L9.78654 20.5864C11.7857 19.5677 13.3546 18.1553 13.7968 16.1649C14.2344 14.1949 13.4147 12.3348 12.2763 10.7808C11.5384 9.76589 11.3091 9.13964 11.2563 8.81125C11.2196 8.58315 11.2619 8.52382 11.3207 8.44691C11.4452 8.28432 11.738 8.03518 12.3648 7.71561C12.9787 7.40259 13.7173 7.11579 14.6123 6.76991C19.142 5.0415 23.9068 5.29706 28.5775 6.45635C35.0879 8.09664 41.5973 8.91513 48.1333 9.47958L48.1376 9.47994C48.3219 9.49545 48.5081 9.51183 48.6959 9.52834C50.4155 9.67956 52.2737 9.84297 54.0981 9.46859C56.2641 9.02414 58.2493 7.8767 60.2896 5.63129C61.2303 4.59649 63.027 3.97686 65.7692 3.53283C66.7245 3.37813 67.7005 3.25619 68.719 3.12895C69.1121 3.07983 69.5116 3.02993 69.9187 2.97704C71.3415 2.79217 72.8246 2.5742 74.2171 2.23228C75.6827 1.87357 76.5253 1.98935 77.0325 2.1849C77.5336 2.37807 77.9639 2.74694 78.4267 3.40521C78.8046 3.94286 79.1116 4.52641 79.4869 5.23981C79.6139 5.48128 79.7487 5.73763 79.8968 6.01212C80.4319 7.00402 81.1192 8.18051 82.1333 9.14964C83.001 9.9831 83.8364 10.9402 84.7679 12.0075C84.9239 12.1862 85.0826 12.368 85.2446 12.5528C86.3437 13.8071 87.5651 15.1639 88.97 16.3824C91.8451 18.8759 95.512 20.805 100.711 20.5497L100.714 20.5496C103.603 20.4038 106.653 21.2812 110 22.585C111.094 23.011 112.247 23.496 113.43 23.9935C115.693 24.9457 118.067 25.944 120.345 26.664M91.1058 63.0701L117.215 39.4748C117.216 39.4746 117.216 39.4745 117.217 39.4743C118.492 38.9883 118.91 38.4311 119.102 37.9925C119.343 37.4399 119.396 36.6951 119.318 35.5406C119.302 35.3066 119.279 35.0423 119.254 34.7575C119.173 33.8414 119.073 32.7134 119.144 31.7018C119.243 30.2812 119.675 28.725 120.992 27.426M91.1058 63.0701C90.6469 62.9941 90.1932 62.8799 89.7526 62.7174C87.8877 62.03 86.5036 60.5744 85.8445 58.2954C85.4755 57.0195 85.566 55.8168 86.0342 54.7621C86.4841 53.7487 87.2197 53.0103 87.926 52.4894C89.2976 51.4778 90.9201 51.0193 91.6431 50.882L91.1058 63.0701ZM120.345 26.664C120.344 26.6639 120.344 26.6638 120.344 26.6637L120.948 24.7573L120.346 26.6643C120.345 26.6642 120.345 26.6641 120.345 26.664ZM120.345 26.664C120.649 26.7609 120.79 26.8806 120.855 26.9513C120.923 27.0258 120.963 27.1083 120.984 27.1994C121.003 27.2847 121.001 27.3662 120.992 27.426M120.992 27.426C120.99 27.4366 120.988 27.4464 120.986 27.4555C120.983 27.4648 120.981 27.4719 120.98 27.4772M120.992 27.426C121.033 27.3849 121.076 27.3441 121.119 27.3035L120.98 27.4772M120.98 27.4772C120.976 27.4841 120.975 27.4879 120.975 27.4882C120.976 27.4885 120.977 27.485 120.98 27.4772Z" stroke="url(#paint0_linear_3447_3318)" stroke-width="4"/>
<defs>
<linearGradient id="paint0_linear_3447_3318" x1="61.4957" y1="0" x2="61.4957" y2="70.5166" gradientUnits="userSpaceOnUse">
<stop stop-color="#60C0BC"/>
<stop offset="0.508333" stop-color="#4EB5E7"/>
<stop offset="1" stop-color="#7662A7"/>
</linearGradient>
</defs>
</svg>
