<svg width="25" height="37" viewBox="0 0 25 37" fill="none" xmlns="http://www.w3.org/2000/svg">
<path d="M23.7799 5.9667H21.8999V1.58004C21.8999 1.23396 21.6193 0.953369 21.2733 0.953369H3.72659C3.38052 0.953369 3.09993 1.23396 3.09993 1.58004V5.9667H1.21993C0.873852 5.9667 0.593262 6.24729 0.593262 6.59337V35.42C0.593262 35.7661 0.873852 36.0467 1.21993 36.0467H23.7799C24.126 36.0467 24.4066 35.7661 24.4066 35.42V6.59337C24.4066 6.24729 24.126 5.9667 23.7799 5.9667ZM4.35326 2.2067H20.6466V5.9667H4.35326V2.2067ZM23.1533 34.7934H1.84659V7.22004H3.72659H21.2733H23.1533V34.7934ZM12.6588 13.0189C7.84552 13.0189 3.92963 16.9348 3.92963 21.7482C3.92963 26.5616 7.84552 30.4775 12.6588 30.4775C17.4721 30.4775 21.3879 26.5616 21.3879 21.7482C21.3879 16.9348 17.4721 13.0189 12.6588 13.0189ZM12.6588 29.224C8.53657 29.224 5.18297 25.8704 5.18297 21.748C5.18297 17.6257 8.53657 14.2721 12.6588 14.2721C16.781 14.2721 20.1346 17.6257 20.1346 21.748C20.1346 25.8704 16.781 29.224 12.6588 29.224ZM12.6588 15.0136C8.94532 15.0136 5.92431 18.0346 5.92431 21.748C5.92431 25.4615 8.94532 28.4825 12.6588 28.4825C16.3723 28.4825 19.3933 25.4617 19.3933 21.748C19.3933 18.0344 16.3723 15.0136 12.6588 15.0136ZM11.2466 10.98C11.2466 10.634 11.5272 10.3534 11.8733 10.3534H13.7533C14.0993 10.3534 14.3799 10.634 14.3799 10.98C14.3799 11.3261 14.0993 11.6067 13.7533 11.6067H11.8733C11.5272 11.6067 11.2466 11.3261 11.2466 10.98ZM11.2466 9.10004C11.2466 8.75396 11.5272 8.47337 11.8733 8.47337H13.7533C14.0993 8.47337 14.3799 8.75396 14.3799 9.10004C14.3799 9.44611 14.0993 9.7267 13.7533 9.7267H11.8733C11.5272 9.7267 11.2466 9.44611 11.2466 9.10004ZM7.49537 4.10785C7.49537 4.52741 7.15524 4.86769 6.73553 4.86769C6.31598 4.86769 5.9757 4.52756 5.9757 4.10785C5.9757 3.68814 6.31582 3.34802 6.73553 3.34802C7.15524 3.34802 7.49537 3.68814 7.49537 4.10785ZM18.7754 4.10785C18.7754 4.52741 18.4352 4.86769 18.0155 4.86769C17.596 4.86769 17.2557 4.52756 17.2557 4.10785C17.2557 3.68814 17.5958 3.34802 18.0155 3.34802C18.4352 3.34802 18.7754 3.68814 18.7754 4.10785ZM13.1354 4.10785C13.1354 4.52741 12.7952 4.86769 12.3755 4.86769C11.956 4.86769 11.6157 4.52756 11.6157 4.10785C11.6157 3.6883 11.9558 3.34802 12.3755 3.34802C12.7952 3.34802 13.1354 3.68814 13.1354 4.10785Z" fill="url(#paint0_linear_3422_1343)"/>
<defs>
<linearGradient id="paint0_linear_3422_1343" x1="12.4999" y1="0.953369" x2="12.4999" y2="36.0467" gradientUnits="userSpaceOnUse">
<stop stop-color="#60C0BC"/>
<stop offset="0.508333" stop-color="#4EB5E7"/>
<stop offset="1" stop-color="#7662A7"/>
</linearGradient>
</defs>
</svg>
